<?xml version="1.0" encoding="UTF-8"?>
<svg width="193px" height="26px" viewBox="0 0 193 26" version="1.1" xmlns="http://www.w3.org/2000/svg" xmlns:xlink="http://www.w3.org/1999/xlink">
    <title>Combined Shape</title>
    <g id="Page-1" stroke="none" stroke-width="1" fill="none" fill-rule="evenodd">
        <g id="Artboard" transform="translate(-36.000000, -30.000000)" fill="#FFFFFF" fill-rule="nonzero">
            <path d="M43.7102226,34.2265357 C45.6396415,30.9851119 49.8314378,29.9215218 53.0728616,31.8509408 C54.0501633,32.432668 54.8667293,33.249234 55.4484566,34.2265357 L55.4484566,34.2265357 L62.1976255,45.5651396 C64.1270445,48.8065634 63.0634544,52.9983597 59.8220306,54.9277786 C58.7652791,55.5567974 57.5583005,55.8888322 56.3285086,55.8888322 L56.3285086,55.8888322 L42.8301706,55.8888322 C39.0579715,55.8888322 36,52.8308607 36,49.0586616 C36,47.8288697 36.3320349,46.6218911 36.9610536,45.5651396 L36.9610536,45.5651396 Z M53.7602719,42.1348466 C51.8010423,42.1348466 50.2127729,44.0166753 50.2127729,46.3380285 C50.2127729,48.6593818 51.8010423,50.5412104 53.7602719,50.5412104 C55.7195014,50.5412104 57.3077708,48.6593818 57.3077708,46.3380285 C57.3077708,44.0166753 55.7195014,42.1348466 53.7602719,42.1348466 Z M45.3984073,42.1348466 C43.4391777,42.1348466 41.8509083,44.0166753 41.8509083,46.3380285 C41.8509083,48.6593818 43.4391777,50.5412104 45.3984073,50.5412104 C47.3576368,50.5412104 48.9459062,48.6593818 48.9459062,46.3380285 C48.9459062,44.0166753 47.3576368,42.1348466 45.3984073,42.1348466 Z M76.8954517,54.9272938 L72.31312,54.9272938 L72.31312,31.5498899 L76.8954517,31.5498899 L76.8954517,54.9272938 Z M91.5604947,54.9272938 L90.6740765,52.6436399 L90.5538841,52.6436399 C89.7826502,53.6151944 88.9888801,54.2887721 88.1725741,54.6643731 C87.356268,55.039974 86.2920652,55.2277745 84.9799659,55.2277745 C83.3673858,55.2277745 82.0978545,54.7670373 81.1713721,53.845563 C80.2448898,52.9240886 79.7816486,51.6119893 79.7816486,49.9092649 C79.7816486,48.1264123 80.4051462,46.811809 81.6521414,45.9654548 C82.8991366,45.1191007 84.7796454,44.6508515 87.2936678,44.5607072 L90.2083313,44.470563 L90.2083313,43.7343851 C90.2083313,42.0316607 89.336937,41.1802986 87.5941486,41.1802986 C86.2520011,41.1802986 84.6744771,41.5859476 82.8615765,42.3972457 L81.3441486,39.3022938 C83.2772415,38.2906752 85.420671,37.7848659 87.774437,37.7848659 C90.0280428,37.7848659 91.7558072,38.2756511 92.9577303,39.2572216 C94.1596534,40.2387922 94.7606149,41.73118 94.7606149,43.7343851 L94.7606149,54.9272938 L91.5604947,54.9272938 Z M90.2083313,47.1448418 L88.4354947,47.204938 C87.1033633,47.2450021 86.1117768,47.4853867 85.4607351,47.9260918 C84.8096934,48.366797 84.4841726,49.0378707 84.4841726,49.939313 C84.4841726,51.2313803 85.2253585,51.877414 86.7077303,51.877414 C87.769429,51.877414 88.6182872,51.5719252 89.2543048,50.9609476 C89.8903225,50.34997 90.2083313,49.538672 90.2083313,48.5270534 L90.2083313,47.1448418 Z M110.567485,54.9272938 L109.951499,52.7788563 L109.711115,52.7788563 C109.220329,53.5601063 108.524216,54.1635718 107.622773,54.5892529 C106.721331,55.014934 105.694688,55.2277745 104.542845,55.2277745 C102.569688,55.2277745 101.082309,54.6994292 100.080706,53.6427385 C99.0791034,52.5860478 98.5783022,51.0661159 98.5783022,49.0829428 L98.5783022,38.1304188 L103.160634,38.1304188 L103.160634,47.9411159 C103.160634,49.153055 103.375978,50.0620093 103.806668,50.6679789 C104.237357,51.2739484 104.923454,51.5769332 105.864961,51.5769332 C107.147012,51.5769332 108.073494,51.1487481 108.644408,50.2923779 C109.215321,49.4360077 109.500778,48.0162361 109.500778,46.033063 L109.500778,38.1304188 L114.08311,38.1304188 L114.08311,54.9272938 L110.567485,54.9272938 Z M133.585893,54.9272938 L129.003562,54.9272938 L129.003562,45.1165966 C129.003562,43.9046575 128.788217,42.9957032 128.357528,42.3897337 C127.926839,41.7837641 127.240741,41.4807793 126.299235,41.4807793 C125.017183,41.4807793 124.090701,41.9089644 123.519787,42.7653346 C122.948874,43.6217048 122.663417,45.0414765 122.663417,47.0246495 L122.663417,54.9272938 L118.081086,54.9272938 L118.081086,38.1304188 L121.581687,38.1304188 L122.197672,40.2788563 L122.453081,40.2788563 C122.963898,39.4675582 123.667524,38.8540766 124.563958,38.4384115 C125.460392,38.0227465 126.479523,37.814914 127.62135,37.814914 C129.574475,37.814914 131.056847,38.3432593 132.068465,39.39995 C133.080084,40.4566407 133.585893,41.9815806 133.585893,43.9747697 L133.585893,54.9272938 Z M144.314638,55.2277745 C139.086273,55.2277745 136.47209,52.3581832 136.47209,46.6190005 C136.47209,43.7644332 137.183228,41.5834436 138.605504,40.0760317 C140.027779,38.5686199 142.06604,37.814914 144.720287,37.814914 C146.663396,37.814914 148.406185,38.1955229 149.948653,38.9567409 L148.596489,42.502414 C147.875335,42.2119492 147.204262,41.9740686 146.583268,41.7887721 C145.962274,41.6034757 145.341281,41.5108274 144.720287,41.5108274 C142.336473,41.5108274 141.144566,43.2035357 141.144566,46.5889524 C141.144566,49.8742088 142.336473,51.516837 144.720287,51.516837 C145.601697,51.516837 146.418004,51.3991487 147.169206,51.1637721 C147.920407,50.9283955 148.671609,50.5603066 149.422811,50.0595053 L149.422811,53.9807793 C148.681625,54.4515325 147.932927,54.7770534 147.176718,54.9573418 C146.420508,55.1376303 145.466481,55.2277745 144.314638,55.2277745 Z M168.009128,54.9272938 L163.426797,54.9272938 L163.426797,45.1165966 C163.426797,42.6927184 162.525354,41.4807793 160.72247,41.4807793 C159.440418,41.4807793 158.513936,41.9164765 157.943023,42.7878707 C157.372109,43.6592649 157.086652,45.0715245 157.086652,47.0246495 L157.086652,54.9272938 L152.504321,54.9272938 L152.504321,31.5498899 L157.086652,31.5498899 L157.086652,36.3125101 C157.086652,36.6831031 157.051596,37.5544973 156.981484,38.9266928 L156.876316,40.2788563 L157.1167,40.2788563 C158.138335,38.6362281 159.760931,37.814914 161.984489,37.814914 C163.957646,37.814914 165.455042,38.3457633 166.476676,39.407462 C167.498311,40.4691607 168.009128,41.9915966 168.009128,43.9747697 L168.009128,54.9272938 Z M176.499292,54.9272938 L171.91696,54.9272938 L171.91696,31.5498899 L176.499292,31.5498899 L176.499292,54.9272938 Z M191.164335,54.9272938 L190.277916,52.6436399 L190.157724,52.6436399 C189.38649,53.6151944 188.59272,54.2887721 187.776414,54.6643731 C186.960108,55.039974 185.895905,55.2277745 184.583806,55.2277745 C182.971226,55.2277745 181.701694,54.7670373 180.775212,53.845563 C179.84873,52.9240886 179.385488,51.6119893 179.385488,49.9092649 C179.385488,48.1264123 180.008986,46.811809 181.255981,45.9654548 C182.502976,45.1191007 184.383485,44.6508515 186.897508,44.5607072 L189.812171,44.470563 L189.812171,43.7343851 C189.812171,42.0316607 188.940777,41.1802986 187.197988,41.1802986 C185.855841,41.1802986 184.278317,41.5859476 182.465416,42.3972457 L180.947988,39.3022938 C182.881081,38.2906752 185.024511,37.7848659 187.378277,37.7848659 C189.631883,37.7848659 191.359647,38.2756511 192.56157,39.2572216 C193.763493,40.2387922 194.364455,41.73118 194.364455,43.7343851 L194.364455,54.9272938 L191.164335,54.9272938 Z M189.812171,47.1448418 L188.039335,47.204938 C186.707203,47.2450021 185.715617,47.4853867 185.064575,47.9260918 C184.413533,48.366797 184.088012,49.0378707 184.088012,49.939313 C184.088012,51.2313803 184.829198,51.877414 186.31157,51.877414 C187.373269,51.877414 188.222127,51.5719252 188.858145,50.9609476 C189.494162,50.34997 189.812171,49.538672 189.812171,48.5270534 L189.812171,47.1448418 Z M207.617238,37.814914 C209.600411,37.814914 211.152895,38.5886519 212.27469,40.1361279 C213.396485,41.6836039 213.957382,43.8044973 213.957382,46.4988082 C213.957382,49.2732473 213.378957,51.4216848 212.222106,52.9441207 C211.065255,54.4665566 209.490235,55.2277745 207.497046,55.2277745 C205.523889,55.2277745 203.976413,54.5116287 202.854618,53.079337 L202.539113,53.079337 L201.772887,54.9272938 L198.272286,54.9272938 L198.272286,31.5498899 L202.854618,31.5498899 L202.854618,36.9885918 C202.854618,37.6796976 202.794522,38.7864684 202.674329,40.3089043 L202.854618,40.3089043 C203.926333,38.6462441 205.513873,37.814914 207.617238,37.814914 Z M206.144882,41.4807793 C205.013071,41.4807793 204.186749,41.8288362 203.665916,42.52495 C203.145083,43.2210638 202.87465,44.3704027 202.854618,45.9729668 L202.854618,46.4687601 C202.854618,48.2716447 203.122547,49.563712 203.658404,50.344962 C204.194261,51.126212 205.04312,51.516837 206.204979,51.516837 C207.146485,51.516837 207.895183,51.0836439 208.451072,50.2172577 C209.006962,49.3508715 209.284906,48.0913563 209.284906,46.438712 C209.284906,44.7860678 209.004458,43.5465846 208.44356,42.7202625 C207.882663,41.8939404 207.116437,41.4807793 206.144882,41.4807793 Z M228.652473,49.939313 C228.652473,51.6620694 228.054016,52.9741688 226.857101,53.8756111 C225.660186,54.7770534 223.869821,55.2277745 221.486007,55.2277745 C220.264052,55.2277745 219.222385,55.1451423 218.361007,54.9798779 C217.499629,54.8146135 216.693339,54.5717248 215.942137,54.251212 L215.942137,50.4651543 C216.793499,50.8657954 217.752534,51.2013322 218.81924,51.4717649 C219.885947,51.7421976 220.824949,51.877414 221.636248,51.877414 C223.298908,51.877414 224.130238,51.3966447 224.130238,50.4351063 C224.130238,50.0745293 224.020062,49.7815606 223.799709,49.5562 C223.579356,49.3308394 223.198748,49.0754308 222.657882,48.789974 C222.117017,48.5045173 221.395863,48.1714845 220.494421,47.7908755 C219.202353,47.2500101 218.253335,46.7492088 217.647365,46.2884716 C217.041396,45.8277345 216.600691,45.2993891 216.32525,44.7034356 C216.049809,44.1074821 215.912089,43.3738082 215.912089,42.502414 C215.912089,41.0100261 216.490514,39.8556792 217.647365,39.0393731 C218.804216,38.223067 220.44434,37.814914 222.567738,37.814914 C224.590975,37.814914 226.559124,38.2556191 228.472185,39.1370293 L227.089973,42.4423178 C226.248627,42.0817409 225.462369,41.7862681 224.731199,41.5558995 C224.00003,41.3255309 223.253836,41.2103466 222.492618,41.2103466 C221.140454,41.2103466 220.464373,41.5759316 220.464373,42.3071015 C220.464373,42.7177585 220.682221,43.0733274 221.117918,43.3738082 C221.553615,43.674289 222.507642,44.1200021 223.979998,44.7109476 C225.292097,45.241797 226.253635,45.7375902 226.864613,46.1983274 C227.47559,46.6590646 227.926312,47.189914 228.216776,47.7908755 C228.507241,48.391837 228.652473,49.1079829 228.652473,49.939313 Z" id="Combined-Shape"></path>
        </g>
    </g>
</svg>